<?xml version="1.0" standalone="no"?>
<!DOCTYPE svg PUBLIC "-//W3C//DTD SVG 20010904//EN"
 "http://www.w3.org/TR/2001/REC-SVG-20010904/DTD/svg10.dtd">
<svg version="1.0" xmlns="http://www.w3.org/2000/svg"
 width="1024.000000pt" height="1024.000000pt" viewBox="0 0 1024.000000 1024.000000"
 preserveAspectRatio="xMidYMid meet">
<metadata>
Created by potrace 1.16, written by Peter Selinger 2001-2019
</metadata>
<g transform="translate(0.000000,1024.000000) scale(0.100000,-0.100000)"
fill="currentColor" stroke="currentColor">
<path d="M5815 8119 c-279 -27 -562 -92 -804 -185 -73 -29 -144 -49 -191 -54
-41 -5 -137 -17 -213 -25 -151 -18 -355 -65 -513 -118 -258 -88 -448 -187
-738 -384 -187 -127 -205 -137 -306 -158 -160 -34 -396 -141 -581 -264 -223
-148 -374 -287 -628 -576 -97 -110 -246 -272 -331 -360 -228 -235 -353 -404
-484 -656 -165 -318 -244 -608 -253 -935 -11 -360 52 -654 206 -969 114 -232
238 -402 434 -592 408 -396 965 -662 1650 -788 1212 -222 2566 9 3922 669 393
192 674 352 1035 591 365 241 569 405 800 642 246 251 395 469 503 738 170
424 200 870 88 1300 -154 588 -545 1101 -1136 1490 -662 436 -1375 649 -2154
644 -119 -1 -256 -6 -306 -10z m23 -244 c471 -50 938 -244 1289 -539 118 -98
296 -282 370 -383 184 -248 342 -597 402 -888 11 -54 18 -101 16 -103 -2 -2
-10 7 -18 20 -162 268 -250 392 -394 558 -287 333 -789 715 -1283 978 -276
146 -624 261 -933 307 -65 10 -115 21 -110 26 7 7 121 24 218 32 108 9 311 5
443 -8z m1005 -28 c18 -8 39 -22 47 -32 14 -17 13 -18 -25 -11 -53 10 -105 33
-105 45 0 15 44 14 83 -2z m460 -168 c37 -19 87 -72 87 -91 0 -28 -27 -33 -71
-13 -44 20 -113 90 -104 105 8 13 61 13 88 -1z m-2469 -71 c27 -15 5 -31 -43
-31 -22 0 -48 6 -57 14 -14 12 -14 14 2 26 19 14 62 10 98 -9z m351 -3 c39
-16 55 -42 34 -56 -55 -35 -203 24 -162 64 12 12 93 7 128 -8z m2550 -157 c13
-20 14 -23 1 -26 -21 -5 -56 16 -56 33 0 23 37 18 55 -7z m-3224 2 c504 -50
1030 -277 1519 -656 147 -113 424 -390 519 -517 175 -235 288 -453 375 -722
24 -76 66 -239 66 -260 0 -5 -27 32 -60 83 -219 339 -518 643 -940 958 -517
385 -1026 644 -1560 792 -294 82 -517 118 -793 129 -92 3 -164 10 -160 14 5 5
58 27 117 50 295 111 627 157 917 129z m1224 -23 c10 -8 15 -19 11 -25 -11
-19 -96 6 -96 28 0 15 63 12 85 -3z m2321 -52 c9 -14 14 -28 10 -32 -8 -9 -46
27 -46 44 0 21 18 15 36 -12z m-1887 -182 c85 -51 135 -95 155 -138 40 -85
-26 -61 -145 53 -50 47 -94 94 -100 104 -16 30 19 22 90 -19z m1598 -59 c44
-45 63 -88 45 -106 -19 -19 -93 49 -131 120 -30 56 24 47 86 -14z m231 28 c3
-17 -2 -22 -17 -22 -14 0 -21 6 -21 18 0 38 33 41 38 4z m314 -149 c24 -26 48
-65 48 -77 0 -3 -7 -6 -16 -6 -23 0 -84 64 -84 89 0 29 21 26 52 -6z m-4728
-53 c38 -14 32 -35 -14 -54 -77 -31 -183 -14 -167 27 10 28 132 46 181 27z
m3025 -96 c33 -27 41 -54 17 -54 -20 0 -76 49 -76 66 0 22 25 17 59 -12z
m-3426 2 c8 -19 -1 -26 -34 -26 -32 0 -48 18 -28 31 21 13 56 11 62 -5z m911
-41 c15 -12 17 -17 7 -29 -10 -11 -19 -12 -42 -4 -28 9 -37 27 -22 41 11 11
37 7 57 -8z m-1159 -35 c0 -10 -13 -16 -42 -18 -32 -2 -43 1 -43 11 0 22 12
28 50 25 23 -2 35 -8 35 -18z m1642 -24 c117 -40 212 -95 281 -163 65 -65 81
-100 40 -88 -67 20 -354 181 -473 266 l-30 21 55 -6 c31 -3 88 -17 127 -30z
m3667 -71 c49 -46 63 -125 24 -146 -19 -10 -25 -8 -49 19 -17 19 -30 48 -34
76 -12 78 10 97 59 51z m396 -131 c0 -15 -6 -24 -15 -24 -20 0 -50 63 -41 87
7 16 10 15 32 -10 13 -15 24 -39 24 -53z m-5085 27 c696 -103 1391 -447 1836
-907 304 -316 534 -732 585 -1064 l7 -45 -78 95 c-102 123 -332 352 -460 459
-472 393 -1013 696 -1595 893 -527 178 -811 236 -1202 245 -255 6 -448 -5
-605 -36 -110 -21 -109 -18 15 67 264 180 545 273 949 312 128 13 398 3 548
-19z m3450 -107 c30 -20 65 -74 65 -102 0 -49 -44 -34 -90 30 -50 68 -35 111
25 72z m-1579 -220 c46 -60 24 -71 -48 -25 -50 32 -88 86 -65 94 19 7 87 -34
113 -69z m2968 -36 c22 -31 21 -97 -1 -105 -21 -8 -63 39 -63 72 0 57 35 75
64 33z m-987 -20 c23 -21 32 -68 13 -68 -19 0 -50 40 -50 65 0 31 7 31 37 3z
m1371 -146 c3 -26 0 -32 -16 -32 -21 0 -38 42 -26 61 13 21 39 4 42 -29z
m-5883 -161 c438 -75 793 -228 1155 -500 129 -96 351 -307 443 -421 78 -97
185 -261 241 -370 43 -84 116 -258 116 -277 0 -6 -44 35 -97 90 -315 322 -864
750 -1314 1024 -265 162 -508 275 -839 391 -107 37 -196 74 -198 81 -7 21 338
9 493 -18z m2838 15 c60 -25 116 -116 72 -116 -44 0 -125 72 -125 111 0 23 10
24 53 5z m2711 -148 c12 -46 -5 -88 -33 -88 -39 0 -54 67 -25 108 23 33 47 24
58 -20z m-6367 -42 c29 -29 -87 -91 -172 -91 -53 0 -60 2 -63 21 -3 22 27 49
83 71 31 13 139 12 152 -1z m4097 -46 c36 -40 46 -73 26 -85 -29 -18 -101 73
-87 109 10 24 21 20 61 -24z m1238 -37 c21 -25 40 -86 32 -106 -19 -50 -74 12
-74 82 0 45 16 54 42 24z m1498 -52 c16 -30 12 -107 -6 -125 -21 -22 -29 -20
-42 9 -15 32 -15 63 -1 104 12 35 33 40 49 12z m-1196 -43 c20 -28 20 -48 3
-48 -21 0 -50 37 -44 55 9 21 23 19 41 -7z m-5144 -92 c25 -12 52 -34 60 -50
14 -25 14 -28 -5 -42 -36 -27 -142 14 -175 68 -18 30 -18 32 -2 45 21 16 62 9
122 -21z m-972 -65 c19 -12 4 -59 -25 -78 -21 -14 -26 -14 -34 -2 -13 21 -11
34 12 63 22 28 27 30 47 17z m620 -32 c3 -17 -43 -43 -59 -34 -13 8 -11 29 3
43 17 17 52 11 56 -9z m2526 -158 c17 -15 46 -63 46 -76 0 -26 -97 26 -110 59
-16 43 21 53 64 17z m-1995 -26 c35 -30 31 -55 -9 -55 -40 0 -74 30 -66 58 10
29 38 28 75 -3z m5428 3 c29 -37 20 -93 -19 -117 -17 -10 -23 -10 -39 5 -22
20 -26 93 -7 112 16 16 53 15 65 0z m-1802 -32 c42 -42 46 -106 6 -106 -25 0
-61 50 -68 95 -5 31 -3 35 16 35 12 0 33 -11 46 -24z m2195 -15 c0 -22 -25
-45 -40 -36 -5 3 -10 17 -10 31 0 19 5 24 25 24 18 0 25 -5 25 -19z m-5377
-41 c39 -25 47 -35 47 -60 0 -30 -8 -35 -54 -30 -46 5 -123 77 -112 106 9 24
68 17 119 -16z m-1245 -16 c45 -31 21 -128 -40 -157 -30 -14 -34 -14 -50 0
-37 33 -13 144 35 163 30 12 30 12 55 -6z m5610 -69 c21 -65 -5 -126 -42 -96
-22 18 -27 69 -11 108 18 43 36 39 53 -12z m-3974 -124 c33 -35 31 -65 -5 -69
-37 -4 -79 32 -79 69 0 25 4 29 28 29 18 0 38 -10 56 -29z m3181 -66 c0 -34
-3 -40 -22 -43 -17 -3 -26 3 -33 23 -13 35 4 67 33 63 18 -2 22 -10 22 -43z
m-5261 19 c21 -55 -25 -144 -74 -144 -28 0 -43 18 -36 43 3 6 7 24 10 38 13
61 84 105 100 63z m870 0 c18 -7 22 -49 5 -59 -5 -4 -21 -4 -35 -1 -20 6 -24
11 -18 29 4 12 12 25 18 29 14 9 11 9 30 2z m2814 -38 c54 -28 102 -94 102
-141 0 -80 -132 -11 -161 85 -20 65 2 86 59 56z m-2048 -156 c67 -34 87 -103
35 -116 -70 -17 -172 76 -134 122 16 20 53 17 99 -6z m4598 -22 c6 -66 -71
-118 -98 -67 -22 41 29 113 75 107 15 -2 21 -12 23 -40z m460 -35 c4 -24 -24
-51 -39 -36 -13 13 7 66 24 61 6 -3 13 -14 15 -25z m-6294 -85 c13 -22 0 -48
-35 -65 -43 -22 -65 20 -33 65 18 27 51 26 68 0z m844 0 c29 -29 -10 -58 -57
-43 -20 6 -28 34 -14 48 11 11 58 8 71 -5z m1347 -22 c43 -18 75 -63 54 -77
-20 -14 -69 -2 -96 23 -26 24 -29 38 -11 56 15 15 12 15 53 -2z m3278 -18 c7
-21 -4 -38 -23 -38 -23 0 -32 13 -24 34 7 19 40 21 47 4z m-730 -72 c10 -8 17
-27 17 -46 0 -57 -50 -91 -80 -55 -17 20 -6 86 17 102 21 16 24 16 46 -1z
m-2929 -100 c41 -17 66 -51 66 -88 0 -26 -3 -28 -39 -28 -68 0 -136 66 -118
114 8 20 46 21 91 2z m-2234 -46 c6 -12 10 -42 8 -68 -2 -36 -7 -48 -21 -50
-25 -5 -46 26 -47 66 0 63 37 95 60 52z m4217 -49 c20 -26 16 -71 -5 -71 -37
0 -82 71 -61 96 13 15 44 3 66 -25z m-3373 -10 c22 -23 27 -36 22 -55 -5 -22
-12 -26 -43 -26 -58 0 -87 41 -67 94 10 26 57 19 88 -13z m4757 -108 c11 -29
-10 -54 -38 -47 -27 7 -39 40 -22 60 17 21 50 14 60 -13z m-4185 -21 c26 -21
44 -54 44 -81 0 -17 -6 -21 -34 -21 -57 0 -107 60 -89 107 7 18 54 16 79 -5z
m1534 -77 c36 -19 49 -60 27 -82 -9 -9 -33 -16 -57 -16 -48 0 -78 24 -86 66
-3 22 0 29 18 37 34 13 66 12 98 -5z m2964 -3 c6 -11 -22 -52 -35 -52 -16 0
-22 29 -9 45 14 16 36 20 44 7z m-5549 -33 c14 -18 25 -41 23 -53 -8 -55 -88
-9 -88 51 0 44 28 45 65 2z m4235 11 c38 -38 16 -83 -48 -96 -70 -14 -109 53
-56 95 34 27 78 27 104 1z m-2532 -126 c25 -28 25 -42 0 -57 -20 -13 -75 8
-89 35 -6 10 -7 28 -4 39 6 17 13 20 39 15 17 -3 41 -18 54 -32z m3136 -41
c15 -38 -63 -101 -110 -89 -50 13 -21 77 42 96 45 13 61 11 68 -7z m-1367 -50
c15 -22 15 -26 1 -40 -21 -21 -69 -5 -85 28 -10 20 -10 26 2 35 22 17 64 5 82
-23z m-1205 -147 c26 -38 -18 -72 -53 -40 -21 19 -26 60 -6 67 14 5 48 -11 59
-27z m-1733 0 c33 -17 61 -57 61 -86 0 -16 -6 -20 -30 -20 -58 0 -110 45 -110
95 0 26 39 31 79 11z m-602 -68 c23 -22 31 -58 13 -58 -19 0 -73 57 -66 68 11
18 27 15 53 -10z m1217 16 c9 -3 16 -13 16 -21 0 -22 -64 -13 -68 10 -4 18 21
23 52 11z m1831 -129 c36 -35 32 -60 -12 -84 -32 -17 -74 -13 -110 9 -25 15
-33 27 -33 49 0 38 21 50 83 51 38 0 53 -5 72 -25z m1059 2 c9 -15 7 -21 -8
-33 -22 -16 -51 -10 -79 14 -18 16 -18 17 0 30 24 17 73 11 87 -11z m-2378
-152 c30 -30 28 -45 -9 -63 -22 -10 -32 -10 -60 2 -42 17 -51 30 -43 62 9 35
76 35 112 -1z m2754 -27 c0 -8 -33 -28 -47 -28 -37 1 -37 45 1 60 20 8 46 -10
46 -32z m-4024 -61 c29 -25 26 -47 -7 -47 -24 0 -73 46 -64 60 11 17 43 11 71
-13z m1990 -81 c18 -14 18 -16 2 -32 -14 -15 -22 -16 -43 -6 -22 10 -24 15
-15 32 13 24 29 25 56 6z m1254 -1 c19 -22 -5 -45 -47 -45 -37 0 -53 21 -33
45 16 19 64 19 80 0z m-2538 -22 c58 -52 -50 -115 -112 -65 -20 16 -21 21 -11
41 22 40 90 54 123 24z m1983 -43 c0 -18 -52 -27 -67 -12 -17 17 2 33 35 30
20 -2 32 -8 32 -18z m-425 -145 c0 -10 -10 -15 -30 -15 -20 0 -30 5 -30 15 0
10 10 15 30 15 20 0 30 -5 30 -15z m-700 -20 c17 -20 4 -35 -30 -35 -32 0 -45
13 -36 35 7 19 50 19 66 0z"/>
</g>
</svg>
